<?xml version="1.0" encoding="UTF-8"?>
<!DOCTYPE svg PUBLIC "-//W3C//DTD SVG 1.1//EN" "http://www.w3.org/Graphics/SVG/1.1/DTD/svg11.dtd">
<!-- Creator: CorelDRAW 2018 (64 Bit) -->
<svg xmlns="http://www.w3.org/2000/svg" xml:space="preserve" width="48px" height="48px" version="1.1" style="shape-rendering:geometricPrecision; text-rendering:geometricPrecision; image-rendering:optimizeQuality; fill-rule:evenodd; clip-rule:evenodd"
viewBox="0 0 7.63 7.63"
 xmlns:xlink="http://www.w3.org/1999/xlink">
 <defs>
  <style type="text/css">
   <![CDATA[
    .fil0 {fill:#FEFEFE}
    .fil1 {fill:#D2D3D5}
    .fil2 {fill:#A9ABAE}
    .fil3 {fill:#727376}
    .fil4 {fill:black}
   ]]>
  </style>
 </defs>
 <g id="Capa_x0020_1">
  <metadata id="CorelCorpID_0Corel-Layer"/>
  <g id="_2374741483568">
   <rect class="fil0" width="7.63" height="7.63"/>
   <polygon class="fil1" points="4.47,6.81 1.97,2.15 5.46,0 7.63,0 7.63,4.69 "/>
   <path class="fil2" d="M2.86 2.16c1.44,0 2.61,1.16 2.61,2.6 0,1.44 -1.17,2.61 -2.61,2.61 -1.43,0 -2.6,-1.17 -2.6,-2.61 0,-0.49 0.13,-0.94 0.37,-1.34l1.81 -1.23c0.14,-0.02 0.28,-0.03 0.42,-0.03z"/>
   <polygon class="fil3" points="3.98,4.68 1.43,6.31 1.83,6.54 4.75,4.68 "/>
   <polygon class="fil3" points="7.63,4.42 3.73,7 3.93,7.42 7.63,5 "/>
   <polygon class="fil3" points="2.42,2 0.39,3.32 0.79,3.56 2.97,2.17 "/>
   <polygon class="fil4" points="5.89,0 5.03,0 1.44,2.28 1.67,2.68 "/>
   <path class="fil4" d="M0.53 4.22l4.67 0c-0.24,-1.07 -1.2,-1.86 -2.34,-1.86 -0.43,0 -0.84,0.12 -1.19,0.32l-0.23 -0.4c0.42,-0.24 0.91,-0.38 1.42,-0.38 1.59,0 2.87,1.28 2.87,2.86 0,0.49 -0.12,0.95 -0.34,1.35l-0.23 0 -0.31 0 -0.59 0c-0.13,0 -0.24,-0.11 -0.24,-0.24l0 0c0,-0.12 0.11,-0.23 0.24,-0.23l0.84 0c0.11,-0.27 0.17,-0.57 0.17,-0.88 0,-0.02 -0.01,-0.05 -0.01,-0.08l-1.28 0 -3.51 0c-0.01,0.03 -0.01,0.06 -0.01,0.08 0,0.5 0.15,0.95 0.41,1.34l0.87 0c0.13,0 0.23,0.1 0.23,0.23l0 0c0,0.13 -0.1,0.23 -0.23,0.23l-0.47 0c0.43,0.37 0.98,0.6 1.59,0.6 0.31,0 0.6,-0.05 0.87,-0.16l0.2 0.42c-0.33,0.13 -0.69,0.21 -1.07,0.21 -1.58,0 -2.86,-1.29 -2.86,-2.87 0,-0.52 0.14,-1.01 0.39,-1.44l0.4 0.24c-0.12,0.2 -0.21,0.42 -0.26,0.66z"/>
   <polygon class="fil4" points="7.63,4.69 7.63,4.14 5.16,5.7 5.39,6.11 "/>
  </g>
 </g>
</svg>
