<?xml version="1.0" encoding="UTF-8"?>
<!DOCTYPE svg PUBLIC "-//W3C//DTD SVG 1.1//EN" "http://www.w3.org/Graphics/SVG/1.1/DTD/svg11.dtd">
<!-- Creator: CorelDRAW 2018 (64 Bit) -->
<svg xmlns="http://www.w3.org/2000/svg" xml:space="preserve" width="48px" height="48px" version="1.1" style="shape-rendering:geometricPrecision; text-rendering:geometricPrecision; image-rendering:optimizeQuality; fill-rule:evenodd; clip-rule:evenodd"
viewBox="0 0 48 48"
 xmlns:xlink="http://www.w3.org/1999/xlink">
 <defs>
  <style type="text/css">
   <![CDATA[
    .str0 {stroke:#FAA831;stroke-width:2;stroke-linecap:round;stroke-linejoin:round;stroke-miterlimit:22.9256}
    .fil1 {fill:none}
    .fil0 {fill:#FEFEFE}
    .fil2 {fill:#727376}
    .fil3 {fill:#FFCC29;fill-rule:nonzero}
   ]]>
  </style>
 </defs>
 <g id="Capa_x0020_1">
  <metadata id="CorelCorpID_0Corel-Layer"/>
  <g id="_2373850042816">
   <rect class="fil0" width="48" height="48"/>
   <path class="fil1 str0" d="M26.27 20.94l11.73 4.96 -12.47 16.31m5.39 0l-5.39 0 -1.4 -5.21"/>
   <g>
    <rect class="fil2" x="38.5" y="5" width="3" height="43"/>
    <circle class="fil2" cx="43" cy="5" r="5"/>
   </g>
   <path class="fil3" d="M16.52 8.21c2.34,0 4.46,0.97 5.99,2.53 1.53,1.56 2.48,3.71 2.48,6.09 0,2.37 -0.95,4.52 -2.48,6.08 -1.53,1.57 -3.65,2.53 -5.99,2.53 -2.34,0 -4.46,-0.96 -5.99,-2.53 -1.53,-1.56 -2.47,-3.71 -2.47,-6.08 0,-2.38 0.94,-4.53 2.47,-6.09 1.54,-1.56 3.65,-2.53 5.99,-2.53zm4.74 3.76c-1.21,-1.23 -2.89,-2 -4.74,-2 -1.85,0 -3.52,0.77 -4.74,2 -1.21,1.24 -1.96,2.96 -1.96,4.86 0,1.9 0.75,3.61 1.96,4.85 1.22,1.24 2.89,2 4.74,2 1.85,0 3.53,-0.76 4.74,-2 1.22,-1.24 1.97,-2.95 1.97,-4.85 0,-1.9 -0.75,-3.62 -1.97,-4.86zm-3.86 -5.92c0,0.49 -0.39,0.88 -0.88,0.88 -0.48,0 -0.88,-0.39 -0.88,-0.88l0 -5.17c0,-0.49 0.4,-0.88 0.88,-0.88 0.49,0 0.88,0.39 0.88,0.88l0 5.17zm-4.11 0.49c0.19,0.45 -0.03,0.97 -0.48,1.15 -0.45,0.18 -0.96,-0.04 -1.15,-0.49l-0.96 -2.38c-0.19,-0.45 0.03,-0.96 0.48,-1.14 0.45,-0.19 0.96,0.03 1.14,0.48l0.97 2.38zm-6.19 5.36c0.45,0.19 0.66,0.7 0.47,1.14 -0.19,0.45 -0.7,0.66 -1.15,0.47l-2.34 -0.98c-0.44,-0.19 -0.65,-0.71 -0.46,-1.15 0.18,-0.45 0.7,-0.66 1.14,-0.47l2.34 0.99zm-0.68 8.24c0.45,-0.18 0.96,0.02 1.15,0.47 0.19,0.45 -0.02,0.96 -0.47,1.15l-2.34 0.99c-0.44,0.18 -0.96,-0.03 -1.14,-0.47 -0.19,-0.45 0.02,-0.96 0.46,-1.15l2.34 -0.99zm5.24 6.31c0.19,-0.45 0.7,-0.67 1.15,-0.48 0.45,0.18 0.67,0.69 0.48,1.14l-0.97 2.38c-0.18,0.45 -0.69,0.67 -1.14,0.49 -0.45,-0.18 -0.67,-0.7 -0.48,-1.15l0.96 -2.38zm8.09 0.66c-0.18,-0.45 0.04,-0.96 0.49,-1.14 0.45,-0.19 0.96,0.03 1.14,0.48l0.97 2.38c0.18,0.45 -0.04,0.97 -0.49,1.15 -0.45,0.18 -0.96,-0.04 -1.14,-0.49l-0.97 -2.38zm6.19 -5.35c-0.44,-0.19 -0.65,-0.7 -0.46,-1.15 0.18,-0.45 0.7,-0.65 1.14,-0.47l2.34 0.99c0.45,0.19 0.66,0.7 0.47,1.15 -0.19,0.44 -0.7,0.65 -1.15,0.47l-2.34 -0.99zm0.68 -8.25c-0.44,0.19 -0.96,-0.02 -1.14,-0.47 -0.19,-0.44 0.02,-0.95 0.46,-1.14l2.34 -0.99c0.45,-0.19 0.96,0.02 1.15,0.47 0.19,0.44 -0.02,0.96 -0.47,1.15l-2.34 0.98zm-5.24 -6.31c-0.18,0.45 -0.69,0.67 -1.14,0.49 -0.45,-0.18 -0.67,-0.7 -0.49,-1.15l0.97 -2.38c0.18,-0.45 0.69,-0.67 1.14,-0.48 0.45,0.18 0.67,0.69 0.49,1.14l-0.97 2.38zm-11.7 1.39c0.34,0.35 0.33,0.91 -0.01,1.25 -0.35,0.34 -0.91,0.33 -1.25,-0.02l-3.58 -3.65c-0.34,-0.35 -0.34,-0.91 0.01,-1.25 0.34,-0.33 0.9,-0.33 1.24,0.01l3.59 3.66zm-3.73 7.36c0.49,0 0.88,0.39 0.88,0.88 0,0.48 -0.39,0.88 -0.88,0.88l-5.07 0c-0.49,0 -0.88,-0.4 -0.88,-0.88 0,-0.49 0.39,-0.88 0.88,-0.88l5.07 0zm2.47 7.88c0.34,-0.34 0.9,-0.35 1.25,-0.01 0.34,0.34 0.35,0.9 0.01,1.24l-3.59 3.66c-0.34,0.34 -0.9,0.35 -1.24,0.01 -0.35,-0.34 -0.35,-0.9 -0.01,-1.24l3.58 -3.66zm7.22 3.77c0,-0.48 0.4,-0.88 0.88,-0.88 0.49,0 0.88,0.4 0.88,0.88l0 5.18c0,0.48 -0.39,0.88 -0.88,0.88 -0.48,0 -0.88,-0.4 -0.88,-0.88l0 -5.18zm7.73 -2.54c-0.34,-0.34 -0.33,-0.9 0.01,-1.24 0.35,-0.34 0.9,-0.33 1.24,0.01l3.59 3.66c0.34,0.34 0.33,0.9 -0.01,1.24 -0.35,0.34 -0.9,0.33 -1.24,-0.01l-3.59 -3.66zm3.72 -7.35c-0.49,0 -0.88,-0.4 -0.88,-0.88 0,-0.49 0.39,-0.88 0.88,-0.88l5.07 0c0.49,0 0.88,0.39 0.88,0.88 0,0.48 -0.39,0.88 -0.88,0.88l-5.07 0zm-2.47 -7.89c-0.34,0.35 -0.89,0.36 -1.24,0.02 -0.34,-0.34 -0.35,-0.9 -0.01,-1.25l3.59 -3.66c0.34,-0.34 0.89,-0.34 1.24,-0.01 0.34,0.34 0.35,0.9 0.01,1.25l-3.59 3.65z"/>
  </g>
 </g>
</svg>
