<?xml version="1.0" encoding="UTF-8"?>
<!DOCTYPE svg PUBLIC "-//W3C//DTD SVG 1.1//EN" "http://www.w3.org/Graphics/SVG/1.1/DTD/svg11.dtd">
<!-- Creator: CorelDRAW 2018 (64 Bit) -->
<svg xmlns="http://www.w3.org/2000/svg" xml:space="preserve" width="48px" height="48px" version="1.1" style="shape-rendering:geometricPrecision; text-rendering:geometricPrecision; image-rendering:optimizeQuality; fill-rule:evenodd; clip-rule:evenodd"
viewBox="0 0 13.68 13.68"
 xmlns:xlink="http://www.w3.org/1999/xlink">
 <defs>
  <style type="text/css">
   <![CDATA[
    .fil1 {fill:#727376}
    .fil0 {fill:black}
   ]]>
  </style>
 </defs>
 <g id="Capa_x0020_1">
  <metadata id="CorelCorpID_0Corel-Layer"/>
  <g id="_2373912809376">
   <path class="fil0" d="M0 4.14l0 -1.36 5.1 0 0 1.36 -5.1 0zm0 -1.65l0 -1.35 5.1 0 0 1.35 -5.1 0zm8.58 -1.35l5.1 0 0 1.35 -5.1 0 0 -1.35zm5.1 1.64l0 1.36 -5.1 0 0 -1.36 5.1 0zm-13.68 5.56l0 -1.36 0.9 0 0 1.36 -0.9 0zm0 -1.64l0 -1.36 0.9 0 0 1.36 -0.9 0zm4.37 -1.36l4.93 0 0 1.36 -4.93 0 0 -1.36zm4.93 1.64l0 1.36 -4.93 0 0 -1.36 4.93 0zm3.48 -1.64l0.9 0 0 1.36 -0.9 0 0 -1.36zm0.9 1.64l0 1.36 -0.9 0 0 -1.36 0.9 0zm-13.68 5.56l0 -1.36 5.1 0 0 1.36 -5.1 0zm0 -1.64l0 -1.36 5.1 0 0 1.36 -5.1 0zm8.58 -1.36l5.1 0 0 1.36 -5.1 0 0 -1.36zm5.1 1.64l0 1.36 -5.1 0 0 -1.36 5.1 0z"/>
   <path class="fil1" d="M1.14 0l1.35 0 0 0.9 -1.35 0 0 -0.9zm1.64 0l1.36 0 0 0.9 -1.36 0 0 -0.9zm1.36 4.37l0 4.93 -1.36 0 0 -4.93 1.36 0zm-1.65 4.93l-1.35 0 0 -4.93 1.35 0 0 4.93zm1.65 3.48l0 0.9 -1.36 0 0 -0.9 1.36 0zm-1.65 0.9l-1.35 0 0 -0.9 1.35 0 0 0.9zm7.05 -13.68l1.36 0 0 0.9 -1.36 0 0 -0.9zm1.64 0l1.36 0 0 0.9 -1.36 0 0 -0.9zm1.36 4.37l0 4.93 -1.36 0 0 -4.93 1.36 0zm-1.64 4.93l-1.36 0 0 -4.93 1.36 0 0 4.93zm1.64 3.48l0 0.9 -1.36 0 0 -0.9 1.36 0zm-1.64 0.9l-1.36 0 0 -0.9 1.36 0 0 0.9zm-5.56 -13.68l1.36 0 0 5.1 -1.36 0 0 -5.1zm1.64 0l1.36 0 0 5.1 -1.36 0 0 -5.1zm1.36 8.58l0 5.1 -1.36 0 0 -5.1 1.36 0zm-1.64 5.1l-1.36 0 0 -5.1 1.36 0 0 5.1z"/>
  </g>
 </g>
</svg>
