<?xml version="1.0" encoding="UTF-8"?>
<!DOCTYPE svg PUBLIC "-//W3C//DTD SVG 1.1//EN" "http://www.w3.org/Graphics/SVG/1.1/DTD/svg11.dtd">
<!-- Creator: CorelDRAW 2018 (64 Bit) -->
<svg xmlns="http://www.w3.org/2000/svg" xml:space="preserve" width="48px" height="48px" version="1.1" style="shape-rendering:geometricPrecision; text-rendering:geometricPrecision; image-rendering:optimizeQuality; fill-rule:evenodd; clip-rule:evenodd"
viewBox="0 0 9.11 9.11"
 xmlns:xlink="http://www.w3.org/1999/xlink">
 <defs>
  <style type="text/css">
   <![CDATA[
    .str0 {stroke:#606062;stroke-width:0.19;stroke-miterlimit:22.9256}
    .fil4 {fill:none}
    .fil5 {fill:#606062}
    .fil1 {fill:#FFCC29}
    .fil3 {fill:#FAA831}
    .fil2 {fill:#F58634}
    .fil6 {fill:#B44D2F}
    .fil0 {fill:#91D8F7}
   ]]>
  </style>
 </defs>
 <g id="Capa_x0020_1">
  <metadata id="CorelCorpID_0Corel-Layer"/>
  <rect class="fil0" width="9.11" height="9.11"/>
  <circle class="fil1" cx="3.61" cy="4.55" r="3.04"/>
  <rect class="fil2" x="4.55" width="4.55" height="9.11"/>
  <path class="fil3" d="M4.55 7.44l0 -5.77c1.22,0.4 2.09,1.54 2.09,2.88 0,1.35 -0.87,2.49 -2.09,2.89z"/>
  <line class="fil4 str0" x1="4.19" y1="0.55" x2="4.19" y2= "9.11" />
  <g id="_2374810143888">
   <circle class="fil5" cx="4.19" cy="1.38" r="0.19"/>
   <circle class="fil5" cx="4.19" cy="1.91" r="0.19"/>
   <circle class="fil5" cx="4.19" cy="2.43" r="0.19"/>
   <circle class="fil5" cx="4.19" cy="2.95" r="0.19"/>
   <circle class="fil5" cx="4.19" cy="3.48" r="0.19"/>
   <circle class="fil5" cx="4.19" cy="4" r="0.19"/>
   <circle class="fil5" cx="4.19" cy="4.53" r="0.19"/>
   <circle class="fil5" cx="4.19" cy="5.05" r="0.19"/>
   <circle class="fil5" cx="4.19" cy="5.57" r="0.19"/>
   <circle class="fil5" cx="4.19" cy="6.1" r="0.19"/>
   <circle class="fil5" cx="4.19" cy="6.62" r="0.19"/>
   <circle class="fil5" cx="4.19" cy="7.15" r="0.19"/>
   <circle class="fil5" cx="4.19" cy="7.67" r="0.19"/>
   <circle class="fil5" cx="4.19" cy="8.19" r="0.19"/>
   <circle class="fil5" cx="4.19" cy="8.72" r="0.19"/>
  </g>
  <path class="fil2" d="M4.55 0l4.56 0 0 1.11 -4.56 0c-0.3,0 -0.55,-0.25 -0.55,-0.56l0 0c0,-0.3 0.25,-0.55 0.55,-0.55z"/>
  <path class="fil6" d="M4.65 1.11l4.46 0 0 0.38 -4.27 0c-0.1,0 -0.19,-0.08 -0.19,-0.19l0 -0.19z"/>
 </g>
</svg>
