<?xml version="1.0" encoding="UTF-8"?>
<!DOCTYPE svg PUBLIC "-//W3C//DTD SVG 1.1//EN" "http://www.w3.org/Graphics/SVG/1.1/DTD/svg11.dtd">
<!-- Creator: CorelDRAW 2018 (64 Bit) -->
<svg xmlns="http://www.w3.org/2000/svg" xml:space="preserve" width="303px" height="72px" version="1.1" style="shape-rendering:geometricPrecision; text-rendering:geometricPrecision; image-rendering:optimizeQuality; fill-rule:evenodd; clip-rule:evenodd"
viewBox="0 0 311.48 73.93"
 xmlns:xlink="http://www.w3.org/1999/xlink">
 <defs>
  <style type="text/css">
   <![CDATA[
    .fil0 {fill:#00AFEF}
    .fil1 {fill:#373435;fill-rule:nonzero}
   ]]>
  </style>
 </defs>
 <g id="Capa_x0020_1">
  <metadata id="CorelCorpID_0Corel-Layer"/>
  <g id="_2502677316592">
   <path class="fil0" d="M80.88 52.38l0.43 -45.92 7.64 3.46 2.84 40.39c17.29,1.43 38.39,4.71 44.66,23.4l-6.23 0c-5.73,-20.08 -31.79,-20.9 -49.34,-21.33zm-32.02 -46.32l4.73 0 0 4.49 4.47 0 0 -4.49 3.77 0 0 4.49 4.47 0 0 -4.49 3.76 0 0 4.49 4.48 0 0 -4.49 4.72 0 -0.36 46.06c-8.31,-0.05 -14.41,-0.39 -22.58,-1.6 -11.83,-2.22 -10.52,-6.45 -0.72,-11.69 5.35,-2.87 5.07,-2.38 10.01,-6.55l-0.1 -8.74c-0.02,-2.57 -6.31,-3.82 -6.5,0.32l-0.32 7.32c-2.14,1.13 -4.64,2.2 -7.13,3.35 -28.07,12.99 -6.04,21.58 9.89,24.26 12.59,2.11 29.62,2.46 36.01,14.92l-60.77 0 0 -25.58c-15.16,-0.38 -29.09,-0.18 -30.64,-18.85l-6.05 0.07c0.73,-6.33 8.14,-8.49 11.03,-15.34l-0.21 -14.01 1.57 0 0 1.94 1.83 0 0 -1.94 1.54 0 0 1.94 1.84 0 0 -1.94 1.54 0 0 1.94 1.83 0 0 -1.94 1.57 0 0.1 15.42c6.87,2.86 9.95,7.3 11.97,14.49 0.46,1.62 -19.14,5.19 -20.4,-5.38 -0.55,-4.61 0.38,-10.03 4.1,-13.02l-0.09 -3.99c-0.66,-0.57 -2.07,-1.28 -2.88,-0.34 -0.75,0.86 -0.5,3.29 -0.49,4.32 -3.12,3.56 -5.67,8.05 -6.09,12.85 1.23,19.45 27.52,12.42 39.84,8.62l0.26 -26.91z"/>
   <path class="fil1" d="M127.05 48.11c-3.1,0 -6.1,-0.48 -8.98,-1.44 -2.89,-0.96 -5.16,-2.21 -6.81,-3.74l2.18 -4.6c1.57,1.41 3.58,2.56 6.04,3.45 2.46,0.88 4.98,1.32 7.57,1.32 3.42,0 5.98,-0.58 7.67,-1.74 1.69,-1.15 2.53,-2.7 2.53,-4.62 0,-1.42 -0.46,-2.57 -1.38,-3.45 -0.93,-0.88 -2.07,-1.56 -3.42,-2.03 -1.36,-0.47 -3.27,-1.01 -5.75,-1.6 -3.1,-0.74 -5.61,-1.49 -7.51,-2.23 -1.91,-0.75 -3.54,-1.9 -4.9,-3.45 -1.35,-1.55 -2.03,-3.65 -2.03,-6.28 0,-2.2 0.58,-4.18 1.74,-5.95 1.16,-1.77 2.92,-3.19 5.27,-4.25 2.36,-1.06 5.29,-1.59 8.79,-1.59 2.43,0 4.83,0.32 7.19,0.94 2.35,0.63 4.38,1.54 6.07,2.72l-1.95 4.71c-1.73,-1.1 -3.57,-1.93 -5.54,-2.5 -1.96,-0.57 -3.89,-0.86 -5.77,-0.86 -3.34,0 -5.85,0.61 -7.52,1.83 -1.67,1.22 -2.5,2.79 -2.5,4.71 0,1.42 0.47,2.57 1.41,3.45 0.94,0.89 2.11,1.57 3.51,2.07 1.39,0.49 3.29,1.01 5.69,1.56 3.1,0.74 5.59,1.49 7.48,2.24 1.89,0.74 3.51,1.88 4.86,3.42 1.36,1.53 2.04,3.59 2.04,6.18 0,2.16 -0.59,4.14 -1.77,5.93 -1.18,1.79 -2.97,3.2 -5.37,4.24 -2.39,1.04 -5.34,1.56 -8.84,1.56zm54.52 -5.6l0 5.13 -29.94 0 0 -41.26 29.12 0 0 5.13 -23.22 0 0 12.67 20.68 0 0 5.01 -20.68 0 0 13.32 24.04 0zm9.55 -36.13l17.39 0c4.36,0 8.23,0.87 11.61,2.6 3.38,1.73 6,4.15 7.87,7.28 1.86,3.12 2.8,6.71 2.8,10.75 0,4.05 -0.94,7.64 -2.8,10.76 -1.87,3.12 -4.49,5.55 -7.87,7.28 -3.38,1.73 -7.25,2.59 -11.61,2.59l-17.39 0 0 -41.26zm17.03 36.13c3.34,0 6.28,-0.64 8.82,-1.94 2.53,-1.3 4.49,-3.12 5.86,-5.45 1.38,-2.34 2.06,-5.04 2.06,-8.11 0,-3.06 -0.68,-5.76 -2.06,-8.1 -1.37,-2.34 -3.33,-4.16 -5.86,-5.45 -2.54,-1.3 -5.48,-1.95 -8.82,-1.95l-11.14 0 0 31 11.14 0zm57.35 -5.18l-21.92 0 -4.54 10.31 -6.07 0 18.68 -41.26 5.84 0 18.74 41.26 -6.19 0 -4.54 -10.31zm-2.06 -4.72l-8.9 -20.21 -8.9 20.21 17.8 0zm24.81 -21.1l0 14.38 20.69 0 0 5.07 -20.69 0 0 16.68 -5.89 0 0 -41.26 29.12 0 0 5.13 -23.23 0z"/>
   <path class="fil1" d="M145.18 61.41l1.31 0 0 12.42 -1.31 0 0 -12.42zm15.74 0l0 12.42 -1.09 0 -7.98 -10.08 0 10.08 -1.31 0 0 -12.42 1.08 0 8 10.08 0 -10.08 1.3 0zm6.45 1.13l-4.36 0 0 -1.13 10.04 0 0 1.13 -4.36 0 0 11.29 -1.32 0 0 -11.29zm16.56 10.15l0 1.14 -8.78 0 0 -12.42 8.51 0 0 1.13 -7.2 0 0 4.42 6.42 0 0 1.12 -6.42 0 0 4.61 7.47 0zm11.57 1.14l-2.84 -3.99c-0.32,0.03 -0.65,0.05 -1,0.05l-3.33 0 0 3.94 -1.31 0 0 -12.42 4.64 0c1.59,0 2.83,0.38 3.73,1.13 0.9,0.76 1.35,1.8 1.35,3.13 0,0.97 -0.25,1.78 -0.74,2.45 -0.49,0.67 -1.19,1.15 -2.1,1.45l3.03 4.26 -1.43 0zm-3.87 -5.06c1.23,0 2.17,-0.27 2.82,-0.82 0.65,-0.54 0.98,-1.3 0.98,-2.28 0,-1.01 -0.33,-1.78 -0.98,-2.32 -0.65,-0.54 -1.59,-0.81 -2.82,-0.81l-3.3 0 0 6.23 3.3 0zm18.59 -7.36l0 12.42 -1.08 0 -7.98 -10.08 0 10.08 -1.32 0 0 -12.42 1.09 0 8 10.08 0 -10.08 1.29 0zm11.84 9.1l-6.92 0 -1.49 3.32 -1.37 0 5.68 -12.42 1.29 0 5.68 12.42 -1.38 0 -1.49 -3.32zm-0.48 -1.06l-2.98 -6.68 -2.98 6.68 5.96 0zm10.63 4.48c-1.23,0 -2.34,-0.27 -3.33,-0.81 -0.99,-0.55 -1.76,-1.3 -2.32,-2.26 -0.57,-0.97 -0.85,-2.05 -0.85,-3.24 0,-1.2 0.28,-2.28 0.85,-3.24 0.56,-0.96 1.33,-1.72 2.33,-2.26 0.99,-0.55 2.1,-0.82 3.33,-0.82 0.93,0 1.78,0.16 2.56,0.46 0.78,0.31 1.44,0.76 1.99,1.35l-0.84 0.83c-0.97,-0.98 -2.19,-1.47 -3.67,-1.47 -0.98,0 -1.88,0.23 -2.68,0.68 -0.8,0.45 -1.43,1.06 -1.89,1.84 -0.45,0.78 -0.68,1.66 -0.68,2.63 0,0.97 0.23,1.84 0.68,2.62 0.46,0.78 1.09,1.4 1.89,1.85 0.8,0.45 1.7,0.67 2.68,0.67 1.49,0 2.71,-0.49 3.67,-1.49l0.84 0.84c-0.55,0.59 -1.21,1.04 -2,1.35 -0.79,0.32 -1.64,0.47 -2.56,0.47zm7.36 -12.52l1.31 0 0 12.42 -1.31 0 0 -12.42zm10.79 12.52c-1.23,0 -2.35,-0.27 -3.35,-0.82 -1,-0.55 -1.78,-1.3 -2.34,-2.26 -0.56,-0.96 -0.84,-2.04 -0.84,-3.23 0,-1.2 0.28,-2.27 0.84,-3.23 0.56,-0.96 1.34,-1.71 2.34,-2.26 1,-0.55 2.12,-0.83 3.35,-0.83 1.23,0 2.34,0.27 3.32,0.82 0.99,0.54 1.77,1.3 2.34,2.26 0.57,0.96 0.85,2.04 0.85,3.24 0,1.19 -0.28,2.27 -0.85,3.24 -0.57,0.96 -1.35,1.71 -2.34,2.26 -0.98,0.54 -2.09,0.81 -3.32,0.81zm0 -1.17c0.98,0 1.87,-0.22 2.66,-0.66 0.79,-0.45 1.41,-1.06 1.86,-1.85 0.45,-0.78 0.68,-1.66 0.68,-2.63 0,-0.97 -0.23,-1.85 -0.68,-2.64 -0.45,-0.78 -1.07,-1.4 -1.86,-1.84 -0.79,-0.45 -1.68,-0.67 -2.66,-0.67 -0.99,0 -1.88,0.22 -2.67,0.67 -0.8,0.44 -1.43,1.06 -1.88,1.84 -0.46,0.79 -0.69,1.67 -0.69,2.64 0,0.97 0.23,1.85 0.69,2.63 0.45,0.79 1.08,1.4 1.88,1.85 0.79,0.44 1.68,0.66 2.67,0.66zm19.83 -11.35l0 12.42 -1.08 0 -7.98 -10.08 0 10.08 -1.32 0 0 -12.42 1.09 0 8 10.08 0 -10.08 1.29 0zm11.84 9.1l-6.92 0 -1.49 3.32 -1.37 0 5.68 -12.42 1.29 0 5.68 12.42 -1.38 0 -1.49 -3.32zm-0.48 -1.06l-2.98 -6.68 -2.98 6.68 5.96 0zm5.41 -8.04l1.31 0 0 11.28 6.96 0 0 1.14 -8.27 0 0 -12.42z"/>
  </g>
 </g>
</svg>
