<?xml version="1.0" encoding="UTF-8"?>
<!DOCTYPE svg PUBLIC "-//W3C//DTD SVG 1.1//EN" "http://www.w3.org/Graphics/SVG/1.1/DTD/svg11.dtd">
<!-- Creator: CorelDRAW 2018 (64 Bit) -->
<svg xmlns="http://www.w3.org/2000/svg" xml:space="preserve" width="348px" height="100px" version="1.1" style="shape-rendering:geometricPrecision; text-rendering:geometricPrecision; image-rendering:optimizeQuality; fill-rule:evenodd; clip-rule:evenodd"
viewBox="0 0 348 100.04"
 xmlns:xlink="http://www.w3.org/1999/xlink">
 <defs>
  <style type="text/css">
   <![CDATA[
    .fil2 {fill:none}
    .fil0 {fill:#FEFEFE}
    .fil1 {fill:#FEFEFE;fill-rule:nonzero}
   ]]>
  </style>
 </defs>
 <g id="Capa_x0020_1">
  <metadata id="CorelCorpID_0Corel-Layer"/>
  <g id="_2502673009408">
   <path class="fil0" d="M96.63 65.95l0.44 -47.47 7.9 3.58 2.93 41.75c17.87,1.48 39.68,4.87 46.17,24.19l-6.44 0c-5.93,-20.76 -32.86,-21.61 -51,-22.05zm-33.09 -47.87l4.88 0 0 4.63 4.62 0 0 -4.63 3.89 0 0 4.63 4.63 0 0 -4.63 3.89 0 0 4.63 4.62 0 0 -4.63 4.89 0 -0.38 47.59c-8.59,-0.04 -14.89,-0.39 -23.33,-1.64 -12.23,-2.3 -10.89,-6.67 -0.75,-12.09 5.53,-2.96 5.24,-2.45 10.35,-6.77l-0.1 -9.03c-0.03,-2.66 -6.53,-3.95 -6.72,0.33l-0.33 7.57c-2.22,1.17 -4.8,2.27 -7.38,3.46 -29,13.42 -6.24,22.3 10.22,25.07 13.01,2.19 30.62,2.55 37.23,15.43l-62.81 0 0 -26.44c-15.67,-0.4 -30.07,-0.19 -31.67,-19.49l-6.26 0.08c0.75,-6.55 8.41,-8.78 11.4,-15.86l-0.22 -14.48 1.62 0 0 2.01 1.9 0 0 -2.01 1.6 0 0 2.01 1.89 0 0 -2.01 1.6 0 0 2.01 1.89 0 0 -2.01 1.62 0 0.1 15.93c7.1,2.97 10.28,7.55 12.38,14.98 0.47,1.68 -19.79,5.37 -21.09,-5.55 -0.57,-4.77 0.39,-10.37 4.24,-13.46l-0.1 -4.12c-0.68,-0.59 -2.14,-1.33 -2.97,-0.36 -0.78,0.89 -0.52,3.4 -0.51,4.47 -3.22,3.67 -5.86,8.31 -6.29,13.27 1.27,20.11 28.44,12.84 41.17,8.92l0.28 -27.81z"/>
   <path class="fil1" d="M144.35 61.54c-3.21,0 -6.3,-0.5 -9.29,-1.49 -2.98,-1 -5.33,-2.29 -7.03,-3.87l2.25 -4.75c1.63,1.46 3.71,2.65 6.24,3.56 2.54,0.91 5.15,1.37 7.83,1.37 3.54,0 6.18,-0.6 7.92,-1.8 1.75,-1.19 2.62,-2.79 2.62,-4.78 0,-1.46 -0.48,-2.65 -1.43,-3.56 -0.95,-0.92 -2.13,-1.62 -3.53,-2.1 -1.4,-0.49 -3.38,-1.04 -5.94,-1.65 -3.21,-0.77 -5.8,-1.54 -7.77,-2.31 -1.97,-0.78 -3.66,-1.96 -5.06,-3.57 -1.4,-1.6 -2.1,-3.76 -2.1,-6.49 0,-2.27 0.6,-4.32 1.8,-6.15 1.2,-1.83 3.02,-3.29 5.45,-4.38 2.44,-1.1 5.46,-1.65 9.08,-1.65 2.52,0 4.99,0.33 7.43,0.98 2.44,0.64 4.53,1.58 6.27,2.8l-2 4.87c-1.79,-1.14 -3.7,-2 -5.73,-2.59 -2.03,-0.59 -4.02,-0.88 -5.97,-0.88 -3.45,0 -6.04,0.63 -7.77,1.89 -1.72,1.26 -2.59,2.88 -2.59,4.87 0,1.46 0.49,2.65 1.46,3.56 0.98,0.92 2.19,1.63 3.63,2.14 1.44,0.5 3.4,1.04 5.88,1.61 3.21,0.77 5.78,1.54 7.73,2.32 1.95,0.77 3.63,1.95 5.03,3.53 1.4,1.58 2.1,3.72 2.1,6.4 0,2.23 -0.61,4.27 -1.83,6.12 -1.21,1.85 -3.06,3.31 -5.54,4.38 -2.48,1.08 -5.52,1.62 -9.14,1.62zm56.35 -5.79l0 5.3 -30.94 0 0 -42.64 30.09 0 0 5.3 -24 0 0 13.09 21.38 0 0 5.18 -21.38 0 0 13.77 24.85 0zm9.87 -37.34l17.97 0c4.51,0 8.51,0.89 12,2.68 3.5,1.78 6.21,4.29 8.14,7.52 1.93,3.23 2.89,6.94 2.89,11.12 0,4.18 -0.96,7.89 -2.89,11.12 -1.93,3.23 -4.64,5.73 -8.14,7.52 -3.49,1.79 -7.49,2.68 -12,2.68l-17.97 0 0 -42.64zm17.61 37.34c3.45,0 6.49,-0.67 9.11,-2.01 2.61,-1.34 4.64,-3.22 6.06,-5.63 1.42,-2.42 2.13,-5.21 2.13,-8.38 0,-3.17 -0.71,-5.96 -2.13,-8.38 -1.42,-2.41 -3.45,-4.29 -6.06,-5.63 -2.62,-1.34 -5.66,-2.01 -9.11,-2.01l-11.52 0 0 32.04 11.52 0zm59.27 -5.36l-22.66 0 -4.69 10.66 -6.28 0 19.32 -42.64 6.03 0 19.37 42.64 -6.4 0 -4.69 -10.66zm-2.13 -4.87l-9.2 -20.9 -9.2 20.9 18.4 0zm25.65 -21.81l0 14.86 21.38 0 0 5.24 -21.38 0 0 17.24 -6.09 0 0 -42.64 30.09 0 0 5.3 -24 0z"/>
   <path class="fil1" d="M163.09 75.28l1.35 0 0 12.84 -1.35 0 0 -12.84zm16.26 0l0 12.84 -1.12 0 -8.25 -10.42 0 10.42 -1.36 0 0 -12.84 1.12 0 8.27 10.42 0 -10.42 1.34 0zm6.68 1.17l-4.51 0 0 -1.17 10.38 0 0 1.17 -4.52 0 0 11.67 -1.35 0 0 -11.67zm17.11 10.49l0 1.18 -9.08 0 0 -12.84 8.8 0 0 1.17 -7.44 0 0 4.57 6.64 0 0 1.16 -6.64 0 0 4.76 7.72 0zm11.95 1.18l-2.93 -4.13c-0.33,0.04 -0.67,0.06 -1.03,0.06l-3.44 0 0 4.07 -1.36 0 0 -12.84 4.8 0c1.64,0 2.93,0.39 3.85,1.17 0.93,0.79 1.4,1.86 1.4,3.23 0,1 -0.26,1.85 -0.76,2.54 -0.51,0.69 -1.24,1.19 -2.18,1.5l3.14 4.4 -1.49 0zm-3.99 -5.23c1.27,0 2.24,-0.28 2.91,-0.84 0.67,-0.57 1.01,-1.35 1.01,-2.37 0,-1.04 -0.34,-1.84 -1.01,-2.39 -0.67,-0.56 -1.64,-0.84 -2.91,-0.84l-3.41 0 0 6.44 3.41 0zm19.22 -7.61l0 12.84 -1.12 0 -8.26 -10.42 0 10.42 -1.35 0 0 -12.84 1.12 0 8.27 10.42 0 -10.42 1.34 0zm12.23 9.41l-7.16 0 -1.53 3.43 -1.42 0 5.87 -12.84 1.34 0 5.87 12.84 -1.43 0 -1.54 -3.43zm-0.5 -1.1l-3.08 -6.9 -3.08 6.9 6.16 0zm10.99 4.64c-1.27,0 -2.42,-0.28 -3.44,-0.85 -1.02,-0.56 -1.82,-1.34 -2.4,-2.33 -0.58,-1 -0.87,-2.12 -0.87,-3.35 0,-1.24 0.29,-2.35 0.87,-3.35 0.58,-0.99 1.38,-1.77 2.41,-2.34 1.02,-0.56 2.17,-0.84 3.45,-0.84 0.95,0 1.83,0.16 2.64,0.48 0.8,0.31 1.49,0.78 2.05,1.39l-0.86 0.86c-1,-1.01 -2.27,-1.52 -3.8,-1.52 -1.01,0 -1.94,0.23 -2.77,0.7 -0.83,0.46 -1.48,1.1 -1.95,1.9 -0.47,0.81 -0.71,1.72 -0.71,2.72 0,1 0.24,1.91 0.71,2.71 0.47,0.81 1.12,1.45 1.95,1.91 0.83,0.46 1.76,0.7 2.77,0.7 1.54,0 2.81,-0.52 3.8,-1.54l0.86 0.86c-0.56,0.61 -1.25,1.08 -2.06,1.4 -0.82,0.32 -1.7,0.49 -2.65,0.49zm7.61 -12.95l1.35 0 0 12.84 -1.35 0 0 -12.84zm11.15 12.95c-1.27,0 -2.43,-0.29 -3.46,-0.86 -1.03,-0.56 -1.84,-1.34 -2.42,-2.33 -0.58,-0.99 -0.87,-2.11 -0.87,-3.34 0,-1.24 0.29,-2.35 0.87,-3.34 0.58,-0.99 1.39,-1.77 2.42,-2.34 1.03,-0.57 2.19,-0.85 3.46,-0.85 1.27,0 2.42,0.28 3.44,0.84 1.02,0.57 1.82,1.35 2.41,2.34 0.58,1 0.88,2.11 0.88,3.35 0,1.23 -0.3,2.35 -0.88,3.35 -0.59,0.99 -1.39,1.77 -2.41,2.33 -1.02,0.57 -2.17,0.85 -3.44,0.85zm0 -1.21c1.01,0 1.93,-0.23 2.75,-0.69 0.82,-0.46 1.46,-1.1 1.92,-1.91 0.47,-0.81 0.7,-1.72 0.7,-2.72 0,-1 -0.23,-1.91 -0.7,-2.72 -0.46,-0.82 -1.1,-1.45 -1.92,-1.91 -0.82,-0.46 -1.74,-0.69 -2.75,-0.69 -1.02,0 -1.94,0.23 -2.76,0.69 -0.83,0.46 -1.48,1.09 -1.95,1.91 -0.47,0.81 -0.7,1.72 -0.7,2.72 0,1 0.23,1.91 0.7,2.72 0.47,0.81 1.12,1.45 1.95,1.91 0.82,0.46 1.74,0.69 2.76,0.69zm20.5 -11.74l0 12.84 -1.12 0 -8.25 -10.42 0 10.42 -1.36 0 0 -12.84 1.12 0 8.27 10.42 0 -10.42 1.34 0zm12.23 9.41l-7.15 0 -1.54 3.43 -1.41 0 5.87 -12.84 1.33 0 5.87 12.84 -1.43 0 -1.54 -3.43zm-0.49 -1.1l-3.08 -6.9 -3.09 6.9 6.17 0zm5.59 -8.31l1.36 0 0 11.66 7.19 0 0 1.18 -8.55 0 0 -12.84z"/>
  </g>
  <rect class="fil2" width="348" height="100.04"/>
 </g>
</svg>
